<svg width="1200" height="760" viewBox="0 0 1200 760" fill="none" xmlns="http://www.w3.org/2000/svg">
  <defs>
    <linearGradient id="bg" x1="0" y1="0" x2="1200" y2="760" gradientUnits="userSpaceOnUse">
      <stop stop-color="#FFF8EF"/>
      <stop offset="1" stop-color="#FFE7C4"/>
    </linearGradient>
    <linearGradient id="card" x1="260" y1="90" x2="940" y2="650" gradientUnits="userSpaceOnUse">
      <stop stop-color="#FFFFFF"/>
      <stop offset="1" stop-color="#FFF2E0"/>
    </linearGradient>
    <linearGradient id="accent" x1="770" y1="120" x2="980" y2="350" gradientUnits="userSpaceOnUse">
      <stop stop-color="#C8102E"/>
      <stop offset="1" stop-color="#F6A21D"/>
    </linearGradient>
    <filter id="soft" x="185" y="45" width="840" height="700" filterUnits="userSpaceOnUse" color-interpolation-filters="sRGB">
      <feFlood flood-opacity="0" result="BackgroundImageFix"/>
      <feGaussianBlur in="BackgroundImageFix" stdDeviation="20"/>
      <feColorMatrix in="SourceAlpha" type="matrix" values="0 0 0 0 0 0 0 0 0 0 0 0 0 0 0 0 0 0 127 0" result="hardAlpha"/>
      <feOffset dy="10"/>
      <feGaussianBlur stdDeviation="18"/>
      <feComposite in2="hardAlpha" operator="out"/>
      <feColorMatrix type="matrix" values="0 0 0 0 0.184314 0 0 0 0 0.0941176 0 0 0 0 0.0627451 0 0 0 0.2 0"/>
      <feBlend mode="normal" in2="BackgroundImageFix" result="effect1_dropShadow_1_1"/>
      <feBlend mode="normal" in="SourceGraphic" in2="effect1_dropShadow_1_1" result="shape"/>
    </filter>
  </defs>
  <rect width="1200" height="760" rx="36" fill="url(#bg)"/>
  <circle cx="1030" cy="120" r="160" fill="#FCE4C4"/>
  <circle cx="160" cy="640" r="130" fill="#FFE2D2"/>
  <g filter="url(#soft)">
    <rect x="245" y="95" width="710" height="560" rx="28" fill="url(#card)"/>
    <rect x="285" y="145" width="360" height="24" rx="12" fill="#C8102E" fill-opacity="0.16"/>
    <rect x="285" y="185" width="288" height="17" rx="8.5" fill="#5B616F" fill-opacity="0.22"/>
    <rect x="285" y="240" width="630" height="88" rx="18" fill="#FFFFFF"/>
    <rect x="305" y="266" width="210" height="14" rx="7" fill="#C8102E" fill-opacity="0.28"/>
    <rect x="305" y="290" width="460" height="12" rx="6" fill="#5B616F" fill-opacity="0.26"/>
    <rect x="285" y="352" width="300" height="122" rx="18" fill="#FFFFFF"/>
    <rect x="605" y="352" width="310" height="122" rx="18" fill="#FFFFFF"/>
    <rect x="285" y="498" width="630" height="122" rx="18" fill="#FFFFFF"/>
    <rect x="305" y="522" width="245" height="13" rx="6.5" fill="#C8102E" fill-opacity="0.3"/>
    <rect x="305" y="545" width="510" height="11" rx="5.5" fill="#5B616F" fill-opacity="0.22"/>
    <rect x="305" y="566" width="430" height="11" rx="5.5" fill="#5B616F" fill-opacity="0.22"/>
    <rect x="786" y="530" width="109" height="50" rx="25" fill="#C8102E"/>
  </g>
  <rect x="748" y="96" width="230" height="230" rx="26" fill="url(#accent)"/>
  <path d="M817 170L855 208L909 154" stroke="white" stroke-width="16" stroke-linecap="round" stroke-linejoin="round"/>
  <circle cx="863" cy="485" r="58" fill="#F6A21D" fill-opacity="0.22"/>
  <circle cx="863" cy="485" r="33" fill="#C8102E" fill-opacity="0.3"/>
</svg>
