<svg width="1200" height="760" viewBox="0 0 1200 760" fill="none" xmlns="http://www.w3.org/2000/svg">
  <defs>
    <linearGradient id="bg2" x1="140" y1="40" x2="1120" y2="700" gradientUnits="userSpaceOnUse">
      <stop stop-color="#FFF4E4"/>
      <stop offset="1" stop-color="#FFE0BE"/>
    </linearGradient>
    <linearGradient id="shield" x1="600" y1="150" x2="600" y2="550" gradientUnits="userSpaceOnUse">
      <stop stop-color="#C8102E"/>
      <stop offset="1" stop-color="#8F0F24"/>
    </linearGradient>
    <linearGradient id="ring" x1="430" y1="280" x2="780" y2="590" gradientUnits="userSpaceOnUse">
      <stop stop-color="#F6A21D"/>
      <stop offset="1" stop-color="#FFD48A"/>
    </linearGradient>
  </defs>
  <rect width="1200" height="760" rx="36" fill="url(#bg2)"/>
  <circle cx="190" cy="156" r="114" fill="#FFDCA4"/>
  <circle cx="1040" cy="612" r="140" fill="#FBDABF"/>

  <rect x="190" y="132" width="352" height="222" rx="24" fill="white" fill-opacity="0.92"/>
  <rect x="230" y="180" width="240" height="18" rx="9" fill="#C8102E" fill-opacity="0.28"/>
  <rect x="230" y="213" width="190" height="12" rx="6" fill="#5B616F" fill-opacity="0.26"/>
  <rect x="230" y="238" width="268" height="12" rx="6" fill="#5B616F" fill-opacity="0.26"/>
  <rect x="230" y="268" width="128" height="46" rx="23" fill="#C8102E"/>

  <rect x="648" y="392" width="362" height="220" rx="24" fill="white" fill-opacity="0.92"/>
  <rect x="689" y="440" width="230" height="18" rx="9" fill="#C8102E" fill-opacity="0.28"/>
  <rect x="689" y="474" width="252" height="12" rx="6" fill="#5B616F" fill-opacity="0.26"/>
  <rect x="689" y="500" width="210" height="12" rx="6" fill="#5B616F" fill-opacity="0.26"/>
  <rect x="689" y="530" width="142" height="46" rx="23" fill="#F6A21D"/>

  <circle cx="600" cy="368" r="190" fill="url(#ring)" fill-opacity="0.35"/>
  <path d="M600 150C647 190 716 206 770 210V330C770 448 698 543 600 590C502 543 430 448 430 330V210C484 206 553 190 600 150Z" fill="url(#shield)"/>
  <circle cx="600" cy="352" r="72" fill="white" fill-opacity="0.2"/>
  <path d="M552 352L589 389L652 326" stroke="white" stroke-width="18" stroke-linecap="round" stroke-linejoin="round"/>
  <circle cx="600" cy="352" r="124" stroke="white" stroke-opacity="0.28" stroke-width="2" stroke-dasharray="8 8"/>
</svg>
